<svg xmlns="http://www.w3.org/2000/svg" version="1.1" xmlns:xlink="http://www.w3.org/1999/xlink" viewBox="0 0 200 200" width="200" height="200"><metadata><rdf:RDF xmlns:rdf="http://www.w3.org/1999/02/22-rdf-syntax-ns#" xmlns:dc="http://purl.org/dc/elements/1.1/"><rdf:Description><dc:creator>RealFaviconGenerator</dc:creator><dc:source>https://realfavicongenerator.net</dc:source></rdf:Description></rdf:RDF></metadata><rect width="200" height="200" fill="url('#gradient')"></rect><defs><linearGradient id="gradient" gradientTransform="rotate(360 0.5 0.5)"><stop offset="0%" stop-color="#a7d0cb"></stop><stop offset="100%" stop-color="#deefe6"></stop></linearGradient></defs><g><g fill="#191e27" transform="matrix(2.4358645928636777,0,0,2.4358645928636777,58.38329329449217,117.31837244696936)" stroke="#243a54" stroke-width="0"><path d="M1.07-14.22L5.58-14.22L8.75-4.33L11.91-14.22L16.43-14.22L16.43 0L12.99 0L12.99-3.32L13.32-10.12L9.88 0L7.62 0L4.17-10.13L4.50-3.32L4.50 0L1.07 0L1.07-14.22ZM32.54-8.30L32.54-5.66L27.01-5.66L27.01 0L23.58 0L23.58-14.22L33.10-14.22L33.10-11.57L27.01-11.57L27.01-8.30L32.54-8.30Z"></path></g></g></svg>